<?xml version="1.0"?>
<svg width="24" height="24" xmlns="http://www.w3.org/2000/svg" xmlns:svg="http://www.w3.org/2000/svg" preserveAspectRatio="xMinYMid meet">

 <g class="layer">
  <title>Layer 1</title>
  <path d="m5.48,5a1.5,1.5 0 0 0 -1.5,1.51l0.07,11a1.5,1.5 0 0 0 1.5,1.49l12.98,0a1.5,1.5 0 0 0 1.5,-1.5l0,-7.01a1.5,1.5 0 0 0 -1.5,-1.5l-4.57,0a2.5,2.5 0 0 1 -2,-1l-1.8,-2.39a1.5,1.5 0 0 0 -1.2,-0.6l-3.48,0zm-2.5,1.52a2.5,2.5 0 0 1 2.5,-2.52l3.48,0a2.5,2.5 0 0 1 2,1l7.57,0a2.5,2.5 0 0 1 2.5,2.5l0,3a0.44,0.44 0 0 1 0,0.06l0,6.94a2.5,2.5 0 0 1 -2.5,2.5l-12.98,0a2.5,2.5 0 0 1 -2.5,-2.49l-0.07,-10.99zm9.78,0.87l-1.05,-1.39l6.82,0a1.5,1.5 0 0 1 1.5,1.5l0,0.99a2.49,2.49 0 0 0 -1.5,-0.5l-4.57,0c-0.47,0 -0.92,-0.22 -1.2,-0.6z" fill="#212529" fill-rule="evenodd" id="svg_1"/>
  <path d="m12.06,11.47a0.65,0.65 0 0 1 0.65,-0.65l0.79,0c0.5,0 0.93,0.31 1.17,0.71c0.25,-0.41 0.68,-0.71 1.19,-0.71l0.79,0a0.65,0.65 0 0 1 0.65,0.65l0,0.22l0.65,0a0.65,0.65 0 0 1 0.65,0.65l0.01,4.37a0.65,0.65 0 0 1 -0.65,0.65l-2.49,0c-0.04,0 -0.07,0 -0.12,-0.01a1.67,1.67 0 0 0 -0.26,0.01c-0.14,0.02 -0.19,0.06 -0.21,0.1a0.22,0.22 0 0 1 -0.39,0c-0.03,-0.04 -0.08,-0.08 -0.22,-0.1a1.63,1.63 0 0 0 -0.27,-0.01a2.8,2.8 0 0 1 -0.11,0.01l-1.57,0l-0.92,-0.01a0.65,0.65 0 0 1 -0.65,-0.65l0,-4.37a0.65,0.65 0 0 1 0.65,-0.65l0.66,0.01l0,-0.22zm0,0.65l-0.66,-0.01a0.22,0.22 0 0 0 -0.22,0.22l0,4.37a0.22,0.22 0 0 0 0.22,0.22l0.92,0.01l1.57,0c0.01,0 0.04,0 0.07,0c0.09,-0.01 0.24,-0.01 0.38,0.01l0.03,0.01a0.57,0.57 0 0 0 -0.16,-0.16c-0.16,-0.12 -0.41,-0.18 -0.71,-0.18l-0.79,0a0.65,0.65 0 0 1 -0.65,-0.65l0.01,-3.82zm2.93,4.81l0.03,0c0.13,-0.02 0.28,-0.01 0.37,-0.01l0.07,0l2.49,0a0.22,0.22 0 0 0 0.22,-0.22l0,-4.37a0.22,0.22 0 0 0 -0.22,-0.22l-0.65,0l0,3.82a0.65,0.65 0 0 1 -0.65,0.65l-0.79,0c-0.3,0 -0.55,0.07 -0.71,0.18a0.6,0.6 0 0 0 -0.15,0.15zm1.87,-5.08a0.21,0.21 0 0 0 0,0.1l-0.01,3.99a0.22,0.22 0 0 1 -0.22,0.22l-0.79,0c-0.36,0 -0.7,0.08 -0.96,0.26l0,0l0,-4.13c0,-0.53 0.45,-1.04 0.97,-1.04l0.79,0a0.22,0.22 0 0 1 0.22,0.22l0,0.39l0,-0.01zm-2.41,0.44c0,-0.54 -0.44,-1.04 -0.95,-1.04l-0.79,0a0.22,0.22 0 0 0 -0.22,0.22l-0.01,4.48a0.22,0.22 0 0 0 0.22,0.22l0.79,0c0.36,0 0.7,0.08 0.96,0.26l0,0l0,-4.13z" fill="#212529" fill-rule="evenodd" id="svg_2" stroke="#212529" stroke-width="0.55"/>
 </g>
</svg>