<svg width="24" height="24" viewBox="0 0 24 24" fill="none" xmlns="http://www.w3.org/2000/svg" preserveAspectRatio="xMinYMid meet"><g class="layer" fill="#212529" fill-rule="evenodd"><path d="M5.48 5a1.5 1.5 0 0 0-1.5 1.51l.07 11A1.5 1.5 0 0 0 5.55 19h12.98a1.5 1.5 0 0 0 1.5-1.5v-7.01a1.5 1.5 0 0 0-1.5-1.5h-4.57a2.5 2.5 0 0 1-2-1l-1.8-2.39a1.5 1.5 0 0 0-1.2-.6H5.48zm-2.5 1.52A2.5 2.5 0 0 1 5.48 4h3.48a2.5 2.5 0 0 1 2 1h7.57a2.5 2.5 0 0 1 2.5 2.5v3a.44.44 0 0 1 0 .06v6.94a2.5 2.5 0 0 1-2.5 2.5H5.55a2.5 2.5 0 0 1-2.5-2.49L2.98 6.52zm9.78.87L11.71 6h6.82a1.5 1.5 0 0 1 1.5 1.5v.99a2.49 2.49 0 0 0-1.5-.5h-4.57c-.47 0-.92-.22-1.2-.6z"/><path d="M12.06 11.47a.65.65 0 0 1 .65-.65h.79c.5 0 .93.31 1.17.71.25-.41.68-.71 1.19-.71h.79a.65.65 0 0 1 .65.65v.22h.65a.65.65 0 0 1 .65.65l.01 4.37a.65.65 0 0 1-.65.65h-2.49c-.04 0-.07 0-.12-.01a1.67 1.67 0 0 0-.26.01c-.14.02-.19.06-.21.1a.22.22 0 0 1-.39 0c-.03-.04-.08-.08-.22-.1a1.63 1.63 0 0 0-.27-.01 2.8 2.8 0 0 1-.11.01h-1.57l-.92-.01a.65.65 0 0 1-.65-.65v-4.37a.65.65 0 0 1 .65-.65l.66.01v-.22zm0 .65l-.66-.01a.22.22 0 0 0-.22.22v4.37a.22.22 0 0 0 .22.22l.92.01H13.96c.09-.01.24-.01.38.01l.03.01a.57.57 0 0 0-.16-.16c-.16-.12-.41-.18-.71-.18h-.79a.65.65 0 0 1-.65-.65l.01-3.82zm2.93 4.81h.03c.13-.02.28-.01.37-.01h2.56a.22.22 0 0 0 .22-.22v-4.37a.22.22 0 0 0-.22-.22h-.65v3.82a.65.65 0 0 1-.65.65h-.79c-.3 0-.55.07-.71.18a.6.6 0 0 0-.15.15zm1.87-5.08a.21.21 0 0 0 0 .1l-.01 3.99a.22.22 0 0 1-.22.22h-.79c-.36 0-.7.08-.96.26v-4.13c0-.53.45-1.04.97-1.04h.79a.22.22 0 0 1 .22.22v.39-.01zm-2.41.44c0-.54-.44-1.04-.95-1.04h-.79a.22.22 0 0 0-.22.22l-.01 4.48a.22.22 0 0 0 .22.22h.79c.36 0 .7.08.96.26V12.3z" stroke="#212529" stroke-width=".55"/></g></svg>
